<?xml version="1.0" encoding="UTF-8"?>
<svg id="Layer_1" data-name="Layer 1" xmlns="http://www.w3.org/2000/svg" viewBox="0 0 48 48">
  <defs>
    <style>
      .cls-1 {
        fill: none;
        stroke: #231f20;
        stroke-miterlimit: 10;
        stroke-width: 3.87px;
      }
    </style>
  </defs>
  <path class="cls-1" d="m12.65,13.12c-.94-.01-3.41-.04-5.82,1.42-2.53,1.53-4.71,4.53-4.83,7.99-.15,4.3,2.92,8.43,7.6,9.96.27.09.56.14.84.16,10.51.75,21.02,1.49,31.53,2.24,2.08.15,3.86-1.46,3.88-3.51.05-4.86.1-9.72.15-14.59.02-1.95-1.58-3.55-3.56-3.56-13.65-.08-24.08-.05-29.79-.1Zm22.72,10.15c.02,1.91-1.42,3.49-3.29,3.75-.16.02-.32.03-.49.04l-11.4.14c-2.1.03-3.82-1.63-3.84-3.69-.02-1.91,1.42-3.49,3.29-3.75.16-.02.32-.03.49-.04l11.4-.14c2.1-.03,3.82,1.63,3.84,3.69Z"/>
</svg>