<?xml version="1.0" encoding="UTF-8"?>
<svg id="Layer_1" data-name="Layer 1" xmlns="http://www.w3.org/2000/svg" viewBox="0 0 48 48">
  <defs>
    <style>
      .cls-1 {
        fill: none;
        stroke: #f3a3a6;
        stroke-miterlimit: 10;
        stroke-width: 3.88px;
      }
    </style>
  </defs>
  <path class="cls-1" d="m12.63,13.1c-.94-.01-3.42-.04-5.83,1.42-2.54,1.53-4.72,4.54-4.84,8-.15,4.31,2.92,8.45,7.61,9.98.27.09.56.14.84.16,10.53.75,21.06,1.5,31.59,2.24,2.08.15,3.87-1.47,3.89-3.52.05-4.87.1-9.74.15-14.61.02-1.96-1.58-3.55-3.57-3.57-13.68-.08-24.12-.05-29.84-.1Zm22.77,10.17c.02,1.91-1.42,3.5-3.3,3.76-.16.02-.32.03-.49.04l-11.42.14c-2.11.03-3.83-1.63-3.85-3.7-.02-1.91,1.42-3.5,3.3-3.76.16-.02.32-.03.49-.04l11.42-.14c2.11-.03,3.83,1.63,3.85,3.7Z"/>
</svg>